<mxfile host="app.diagrams.net" modified="2021-08-24T12:35:56.497Z" agent="5.0 (X11; Linux x86_64) AppleWebKit/537.36 (KHTML, like Gecko) Chrome/93.0.4577.42 Safari/537.36 Edg/93.0.961.24" etag="vFEJ_ej8rRsDTUxLmwMb" version="14.9.8" type="github">
  <diagram id="AtQBlbPSFtXsGV2Jis1P" name="Page-1">
    <mxGraphModel dx="1422" dy="801" grid="1" gridSize="10" guides="1" tooltips="1" connect="1" arrows="1" fold="1" page="1" pageScale="1" pageWidth="827" pageHeight="1169" math="0" shadow="0">
      <root>
        <mxCell id="0" />
        <mxCell id="1" parent="0" />
        <mxCell id="8rvlxKicTrinBFtf-t2C-6" value="" style="edgeStyle=orthogonalEdgeStyle;rounded=0;orthogonalLoop=1;jettySize=auto;html=1;" edge="1" parent="1" source="8rvlxKicTrinBFtf-t2C-4" target="8rvlxKicTrinBFtf-t2C-5">
          <mxGeometry relative="1" as="geometry" />
        </mxCell>
        <mxCell id="8rvlxKicTrinBFtf-t2C-4" value="&lt;b&gt;&lt;i&gt;&lt;font style=&quot;font-size: 17px&quot;&gt;engine&lt;/font&gt;&lt;/i&gt;&lt;/b&gt;" style="rounded=1;whiteSpace=wrap;html=1;strokeWidth=2;fillWeight=4;hachureGap=8;hachureAngle=45;sketch=1;strokeColor=#d79b00;fillColor=#FFD966;" vertex="1" parent="1">
          <mxGeometry x="240" y="160" width="120" height="60" as="geometry" />
        </mxCell>
        <mxCell id="8rvlxKicTrinBFtf-t2C-8" value="" style="edgeStyle=orthogonalEdgeStyle;rounded=0;orthogonalLoop=1;jettySize=auto;html=1;" edge="1" parent="1" source="8rvlxKicTrinBFtf-t2C-5" target="8rvlxKicTrinBFtf-t2C-7">
          <mxGeometry relative="1" as="geometry" />
        </mxCell>
        <mxCell id="8rvlxKicTrinBFtf-t2C-5" value="&lt;b&gt;&lt;i&gt;&lt;font style=&quot;font-size: 17px&quot;&gt;builder&lt;/font&gt;&lt;/i&gt;&lt;/b&gt;" style="rounded=1;whiteSpace=wrap;html=1;strokeWidth=2;fillWeight=4;hachureGap=8;hachureAngle=45;sketch=1;fillColor=#f8cecc;strokeColor=#b85450;" vertex="1" parent="1">
          <mxGeometry x="240" y="300" width="120" height="60" as="geometry" />
        </mxCell>
        <mxCell id="8rvlxKicTrinBFtf-t2C-10" value="" style="edgeStyle=orthogonalEdgeStyle;rounded=0;orthogonalLoop=1;jettySize=auto;html=1;" edge="1" parent="1" source="8rvlxKicTrinBFtf-t2C-7" target="8rvlxKicTrinBFtf-t2C-9">
          <mxGeometry relative="1" as="geometry" />
        </mxCell>
        <mxCell id="8rvlxKicTrinBFtf-t2C-7" value="&lt;b&gt;&lt;i&gt;&lt;font style=&quot;font-size: 16px&quot;&gt;runtime&lt;/font&gt;&lt;/i&gt;&lt;/b&gt;" style="rounded=1;whiteSpace=wrap;html=1;strokeWidth=2;fillWeight=4;hachureGap=8;hachureAngle=45;sketch=1;fillColor=#dae8fc;strokeColor=#6c8ebf;" vertex="1" parent="1">
          <mxGeometry x="240" y="440" width="120" height="60" as="geometry" />
        </mxCell>
        <mxCell id="8rvlxKicTrinBFtf-t2C-9" value="&lt;b&gt;&lt;i&gt;&lt;font style=&quot;font-size: 16px&quot;&gt;ops&lt;/font&gt;&lt;/i&gt;&lt;/b&gt;" style="rounded=1;whiteSpace=wrap;html=1;strokeWidth=2;fillWeight=4;hachureGap=8;hachureAngle=45;sketch=1;fillColor=#d5e8d4;strokeColor=#82b366;" vertex="1" parent="1">
          <mxGeometry x="240" y="580" width="120" height="60" as="geometry" />
        </mxCell>
      </root>
    </mxGraphModel>
  </diagram>
</mxfile>
